<mxfile host="app.diagrams.net" agent="Mozilla/5.0 (Macintosh; Intel Mac OS X 10_15_7) AppleWebKit/537.36 (KHTML, like Gecko) Chrome/140.0.0.0 Safari/537.36" version="28.2.5">
  <diagram name="Page-1" id="yCBKYaUJWDn6f53kFqqb">
    <mxGraphModel dx="1051" dy="1778" grid="1" gridSize="10" guides="1" tooltips="1" connect="1" arrows="1" fold="1" page="1" pageScale="1" pageWidth="850" pageHeight="1100" background="#CCE5FF" math="0" shadow="1">
      <root>
        <mxCell id="0" />
        <mxCell id="1" parent="0" />
        <mxCell id="Q69FnzAZ6aBtYkdbK8p3-1" value="Theatre Partner" style="shape=umlActor;verticalLabelPosition=bottom;verticalAlign=top;html=1;outlineConnect=0;" parent="1" vertex="1">
          <mxGeometry x="30" y="40" width="30" height="60" as="geometry" />
        </mxCell>
        <mxCell id="Q69FnzAZ6aBtYkdbK8p3-14" style="edgeStyle=orthogonalEdgeStyle;rounded=0;orthogonalLoop=1;jettySize=auto;html=1;entryX=0.55;entryY=0.95;entryDx=0;entryDy=0;entryPerimeter=0;" parent="1" source="Q69FnzAZ6aBtYkdbK8p3-2" target="Q69FnzAZ6aBtYkdbK8p3-9" edge="1">
          <mxGeometry relative="1" as="geometry">
            <mxPoint x="270" y="210" as="targetPoint" />
            <Array as="points">
              <mxPoint x="45" y="260" />
              <mxPoint x="300" y="260" />
            </Array>
          </mxGeometry>
        </mxCell>
        <mxCell id="Q69FnzAZ6aBtYkdbK8p3-2" value="End Customers" style="shape=umlActor;verticalLabelPosition=bottom;verticalAlign=top;html=1;outlineConnect=0;" parent="1" vertex="1">
          <mxGeometry x="30" y="150" width="30" height="60" as="geometry" />
        </mxCell>
        <mxCell id="Q69FnzAZ6aBtYkdbK8p3-12" style="edgeStyle=orthogonalEdgeStyle;rounded=0;orthogonalLoop=1;jettySize=auto;html=1;entryX=0.1;entryY=0.683;entryDx=0;entryDy=0;entryPerimeter=0;" parent="1" source="Q69FnzAZ6aBtYkdbK8p3-7" target="Q69FnzAZ6aBtYkdbK8p3-9" edge="1">
          <mxGeometry relative="1" as="geometry">
            <Array as="points">
              <mxPoint x="160" y="120" />
              <mxPoint x="160" y="152" />
            </Array>
          </mxGeometry>
        </mxCell>
        <mxCell id="Q69FnzAZ6aBtYkdbK8p3-7" value="MTBP Admin" style="shape=umlActor;verticalLabelPosition=bottom;verticalAlign=top;html=1;outlineConnect=0;" parent="1" vertex="1">
          <mxGeometry x="100" y="90" width="30" height="60" as="geometry" />
        </mxCell>
        <mxCell id="Q69FnzAZ6aBtYkdbK8p3-16" value="" style="edgeStyle=orthogonalEdgeStyle;rounded=0;orthogonalLoop=1;jettySize=auto;html=1;exitX=0.875;exitY=0.5;exitDx=0;exitDy=0;exitPerimeter=0;entryX=0;entryY=0.5;entryDx=0;entryDy=0;" parent="1" source="Q69FnzAZ6aBtYkdbK8p3-9" target="Q69FnzAZ6aBtYkdbK8p3-10" edge="1">
          <mxGeometry relative="1" as="geometry">
            <Array as="points">
              <mxPoint x="390" y="130" />
              <mxPoint x="390" y="40" />
            </Array>
          </mxGeometry>
        </mxCell>
        <mxCell id="Q69FnzAZ6aBtYkdbK8p3-9" value="Load Balancer&lt;br&gt;(https://www.mtbp.com)" style="ellipse;shape=cloud;whiteSpace=wrap;html=1;" parent="1" vertex="1">
          <mxGeometry x="180" y="70" width="200" height="120" as="geometry" />
        </mxCell>
        <mxCell id="Q69FnzAZ6aBtYkdbK8p3-63" style="edgeStyle=orthogonalEdgeStyle;rounded=0;orthogonalLoop=1;jettySize=auto;html=1;entryX=0.25;entryY=0;entryDx=0;entryDy=0;exitX=1;exitY=0.5;exitDx=0;exitDy=0;" parent="1" source="Q69FnzAZ6aBtYkdbK8p3-10" target="Q69FnzAZ6aBtYkdbK8p3-17" edge="1">
          <mxGeometry relative="1" as="geometry">
            <Array as="points">
              <mxPoint x="640" y="40" />
            </Array>
          </mxGeometry>
        </mxCell>
        <mxCell id="13fjL6vr4duW2t4h_kx2-12" style="edgeStyle=orthogonalEdgeStyle;rounded=0;orthogonalLoop=1;jettySize=auto;html=1;exitX=0.5;exitY=1;exitDx=0;exitDy=0;entryX=-0.025;entryY=0.863;entryDx=0;entryDy=0;entryPerimeter=0;" edge="1" parent="1" source="Q69FnzAZ6aBtYkdbK8p3-10" target="Q69FnzAZ6aBtYkdbK8p3-21">
          <mxGeometry relative="1" as="geometry">
            <mxPoint x="600" y="560" as="targetPoint" />
            <Array as="points">
              <mxPoint x="530" y="560" />
            </Array>
          </mxGeometry>
        </mxCell>
        <mxCell id="13fjL6vr4duW2t4h_kx2-13" style="edgeStyle=orthogonalEdgeStyle;rounded=0;orthogonalLoop=1;jettySize=auto;html=1;exitX=1;exitY=1;exitDx=0;exitDy=0;entryX=-0.037;entryY=0.838;entryDx=0;entryDy=0;entryPerimeter=0;" edge="1" parent="1" source="Q69FnzAZ6aBtYkdbK8p3-10" target="Q69FnzAZ6aBtYkdbK8p3-18">
          <mxGeometry relative="1" as="geometry">
            <mxPoint x="600" y="360" as="targetPoint" />
            <Array as="points">
              <mxPoint x="560" y="347" />
            </Array>
          </mxGeometry>
        </mxCell>
        <mxCell id="Q69FnzAZ6aBtYkdbK8p3-10" value="API Gateway" style="rhombus;whiteSpace=wrap;html=1;" parent="1" vertex="1">
          <mxGeometry x="470" y="-20" width="120" height="120" as="geometry" />
        </mxCell>
        <mxCell id="Q69FnzAZ6aBtYkdbK8p3-13" style="edgeStyle=orthogonalEdgeStyle;rounded=0;orthogonalLoop=1;jettySize=auto;html=1;entryX=0.7;entryY=0.208;entryDx=0;entryDy=0;entryPerimeter=0;" parent="1" source="Q69FnzAZ6aBtYkdbK8p3-1" target="Q69FnzAZ6aBtYkdbK8p3-9" edge="1">
          <mxGeometry relative="1" as="geometry">
            <mxPoint x="300" y="60" as="targetPoint" />
            <Array as="points">
              <mxPoint x="45" y="30" />
              <mxPoint x="320" y="30" />
            </Array>
          </mxGeometry>
        </mxCell>
        <mxCell id="Q69FnzAZ6aBtYkdbK8p3-67" style="edgeStyle=orthogonalEdgeStyle;rounded=0;orthogonalLoop=1;jettySize=auto;html=1;entryX=0;entryY=0.5;entryDx=0;entryDy=0;exitX=0;exitY=0.5;exitDx=0;exitDy=0;" parent="1" source="Q69FnzAZ6aBtYkdbK8p3-17" target="Q69FnzAZ6aBtYkdbK8p3-19" edge="1">
          <mxGeometry relative="1" as="geometry">
            <mxPoint x="610" y="220" as="targetPoint" />
          </mxGeometry>
        </mxCell>
        <mxCell id="Q69FnzAZ6aBtYkdbK8p3-17" value="Theatre Partner Service" style="whiteSpace=wrap;html=1;aspect=fixed;" parent="1" vertex="1">
          <mxGeometry x="620" y="60" width="80" height="80" as="geometry" />
        </mxCell>
        <mxCell id="Q69FnzAZ6aBtYkdbK8p3-65" value="" style="edgeStyle=orthogonalEdgeStyle;rounded=0;orthogonalLoop=1;jettySize=auto;html=1;" parent="1" source="Q69FnzAZ6aBtYkdbK8p3-18" target="Q69FnzAZ6aBtYkdbK8p3-23" edge="1">
          <mxGeometry relative="1" as="geometry" />
        </mxCell>
        <mxCell id="Q69FnzAZ6aBtYkdbK8p3-68" style="edgeStyle=orthogonalEdgeStyle;rounded=0;orthogonalLoop=1;jettySize=auto;html=1;entryX=0;entryY=0.75;entryDx=0;entryDy=0;exitX=-0.012;exitY=0.588;exitDx=0;exitDy=0;exitPerimeter=0;" parent="1" source="Q69FnzAZ6aBtYkdbK8p3-18" target="Q69FnzAZ6aBtYkdbK8p3-19" edge="1">
          <mxGeometry relative="1" as="geometry" />
        </mxCell>
        <mxCell id="Q69FnzAZ6aBtYkdbK8p3-18" value="Customer Service" style="whiteSpace=wrap;html=1;aspect=fixed;" parent="1" vertex="1">
          <mxGeometry x="620" y="280" width="80" height="80" as="geometry" />
        </mxCell>
        <mxCell id="Q69FnzAZ6aBtYkdbK8p3-19" value="Inventory Management Service" style="whiteSpace=wrap;html=1;aspect=fixed;" parent="1" vertex="1">
          <mxGeometry x="620" y="170" width="80" height="80" as="geometry" />
        </mxCell>
        <mxCell id="Q69FnzAZ6aBtYkdbK8p3-20" value="Booking Service" style="whiteSpace=wrap;html=1;aspect=fixed;" parent="1" vertex="1">
          <mxGeometry x="620" y="380" width="80" height="80" as="geometry" />
        </mxCell>
        <mxCell id="Q69FnzAZ6aBtYkdbK8p3-21" value="Payment Service" style="whiteSpace=wrap;html=1;aspect=fixed;" parent="1" vertex="1">
          <mxGeometry x="620" y="490" width="80" height="80" as="geometry" />
        </mxCell>
        <mxCell id="Q69FnzAZ6aBtYkdbK8p3-22" value="Theatre Partner DB" style="shape=cylinder3;whiteSpace=wrap;html=1;boundedLbl=1;backgroundOutline=1;size=15;" parent="1" vertex="1">
          <mxGeometry x="820" y="60" width="60" height="80" as="geometry" />
        </mxCell>
        <mxCell id="Q69FnzAZ6aBtYkdbK8p3-23" value="Customer DB" style="shape=cylinder3;whiteSpace=wrap;html=1;boundedLbl=1;backgroundOutline=1;size=15;" parent="1" vertex="1">
          <mxGeometry x="810" y="280" width="60" height="80" as="geometry" />
        </mxCell>
        <mxCell id="Q69FnzAZ6aBtYkdbK8p3-24" value="Inventory DB" style="shape=cylinder3;whiteSpace=wrap;html=1;boundedLbl=1;backgroundOutline=1;size=15;" parent="1" vertex="1">
          <mxGeometry x="820" y="170" width="60" height="80" as="geometry" />
        </mxCell>
        <mxCell id="Q69FnzAZ6aBtYkdbK8p3-25" value="Booking DB" style="shape=cylinder3;whiteSpace=wrap;html=1;boundedLbl=1;backgroundOutline=1;size=15;" parent="1" vertex="1">
          <mxGeometry x="810" y="380" width="60" height="80" as="geometry" />
        </mxCell>
        <mxCell id="Q69FnzAZ6aBtYkdbK8p3-26" value="Payment DB" style="shape=cylinder3;whiteSpace=wrap;html=1;boundedLbl=1;backgroundOutline=1;size=15;" parent="1" vertex="1">
          <mxGeometry x="810" y="490" width="60" height="80" as="geometry" />
        </mxCell>
        <mxCell id="Q69FnzAZ6aBtYkdbK8p3-37" style="edgeStyle=orthogonalEdgeStyle;rounded=0;orthogonalLoop=1;jettySize=auto;html=1;exitX=1;exitY=0.638;exitDx=0;exitDy=0;exitPerimeter=0;entryX=0;entryY=0.5;entryDx=0;entryDy=0;entryPerimeter=0;" parent="1" source="Q69FnzAZ6aBtYkdbK8p3-19" target="Q69FnzAZ6aBtYkdbK8p3-24" edge="1">
          <mxGeometry relative="1" as="geometry">
            <mxPoint x="820" y="220" as="targetPoint" />
            <Array as="points">
              <mxPoint x="700" y="210" />
            </Array>
          </mxGeometry>
        </mxCell>
        <mxCell id="Q69FnzAZ6aBtYkdbK8p3-39" style="edgeStyle=orthogonalEdgeStyle;rounded=0;orthogonalLoop=1;jettySize=auto;html=1;" parent="1" source="Q69FnzAZ6aBtYkdbK8p3-20" edge="1">
          <mxGeometry relative="1" as="geometry">
            <mxPoint x="810" y="410" as="targetPoint" />
            <Array as="points">
              <mxPoint x="810" y="410" />
            </Array>
          </mxGeometry>
        </mxCell>
        <mxCell id="Q69FnzAZ6aBtYkdbK8p3-41" style="edgeStyle=orthogonalEdgeStyle;rounded=0;orthogonalLoop=1;jettySize=auto;html=1;entryX=0;entryY=0;entryDx=0;entryDy=27.5;entryPerimeter=0;" parent="1" source="Q69FnzAZ6aBtYkdbK8p3-21" target="Q69FnzAZ6aBtYkdbK8p3-26" edge="1">
          <mxGeometry relative="1" as="geometry">
            <Array as="points">
              <mxPoint x="755" y="518" />
            </Array>
          </mxGeometry>
        </mxCell>
        <mxCell id="Q69FnzAZ6aBtYkdbK8p3-44" value="KAFKA Messaging Broker" style="rounded=1;whiteSpace=wrap;html=1;rotation=-90;" parent="1" vertex="1">
          <mxGeometry x="220" y="300" width="460" height="100" as="geometry" />
        </mxCell>
        <mxCell id="Q69FnzAZ6aBtYkdbK8p3-66" value="" style="edgeStyle=orthogonalEdgeStyle;rounded=0;orthogonalLoop=1;jettySize=auto;html=1;exitX=1;exitY=0.625;exitDx=0;exitDy=0;exitPerimeter=0;entryX=0;entryY=0;entryDx=0;entryDy=52.5;entryPerimeter=0;" parent="1" source="Q69FnzAZ6aBtYkdbK8p3-17" target="Q69FnzAZ6aBtYkdbK8p3-22" edge="1">
          <mxGeometry relative="1" as="geometry">
            <mxPoint x="700" y="110" as="sourcePoint" />
            <mxPoint x="810" y="110" as="targetPoint" />
            <Array as="points">
              <mxPoint x="700" y="113" />
              <mxPoint x="755" y="113" />
            </Array>
          </mxGeometry>
        </mxCell>
        <mxCell id="13fjL6vr4duW2t4h_kx2-1" value="" style="endArrow=classic;html=1;rounded=0;exitX=0.326;exitY=0.97;exitDx=0;exitDy=0;exitPerimeter=0;entryX=0.013;entryY=0.613;entryDx=0;entryDy=0;entryPerimeter=0;" edge="1" parent="1" source="Q69FnzAZ6aBtYkdbK8p3-44" target="Q69FnzAZ6aBtYkdbK8p3-20">
          <mxGeometry relative="1" as="geometry">
            <mxPoint x="520" y="430" as="sourcePoint" />
            <mxPoint x="620" y="430" as="targetPoint" />
          </mxGeometry>
        </mxCell>
        <mxCell id="13fjL6vr4duW2t4h_kx2-2" value="Booking Events" style="edgeLabel;resizable=0;html=1;;align=center;verticalAlign=middle;" connectable="0" vertex="1" parent="13fjL6vr4duW2t4h_kx2-1">
          <mxGeometry relative="1" as="geometry" />
        </mxCell>
        <mxCell id="13fjL6vr4duW2t4h_kx2-3" value="" style="endArrow=classic;html=1;rounded=0;entryX=0;entryY=0.388;entryDx=0;entryDy=0;entryPerimeter=0;exitX=0.124;exitY=1;exitDx=0;exitDy=0;exitPerimeter=0;" edge="1" parent="1" source="Q69FnzAZ6aBtYkdbK8p3-44" target="Q69FnzAZ6aBtYkdbK8p3-21">
          <mxGeometry relative="1" as="geometry">
            <mxPoint x="510" y="520" as="sourcePoint" />
            <mxPoint x="610" y="520" as="targetPoint" />
          </mxGeometry>
        </mxCell>
        <mxCell id="13fjL6vr4duW2t4h_kx2-4" value="Payment Events" style="edgeLabel;resizable=0;html=1;;align=center;verticalAlign=middle;" connectable="0" vertex="1" parent="13fjL6vr4duW2t4h_kx2-3">
          <mxGeometry relative="1" as="geometry" />
        </mxCell>
        <mxCell id="13fjL6vr4duW2t4h_kx2-5" value="OKTA / OAuth2" style="swimlane;fontStyle=0;childLayout=stackLayout;horizontal=1;startSize=30;horizontalStack=0;resizeParent=1;resizeParentMax=0;resizeLast=0;collapsible=1;marginBottom=0;whiteSpace=wrap;html=1;" vertex="1" parent="1">
          <mxGeometry x="740" y="-70" width="140" height="90" as="geometry">
            <mxRectangle x="740" y="-70" width="120" height="30" as="alternateBounds" />
          </mxGeometry>
        </mxCell>
        <mxCell id="13fjL6vr4duW2t4h_kx2-6" value="+ issueToken" style="text;strokeColor=none;fillColor=none;align=left;verticalAlign=middle;spacingLeft=4;spacingRight=4;overflow=hidden;points=[[0,0.5],[1,0.5]];portConstraint=eastwest;rotatable=0;whiteSpace=wrap;html=1;" vertex="1" parent="13fjL6vr4duW2t4h_kx2-5">
          <mxGeometry y="30" width="140" height="30" as="geometry" />
        </mxCell>
        <mxCell id="13fjL6vr4duW2t4h_kx2-7" value="+ validateToken" style="text;strokeColor=none;fillColor=none;align=left;verticalAlign=middle;spacingLeft=4;spacingRight=4;overflow=hidden;points=[[0,0.5],[1,0.5]];portConstraint=eastwest;rotatable=0;whiteSpace=wrap;html=1;" vertex="1" parent="13fjL6vr4duW2t4h_kx2-5">
          <mxGeometry y="60" width="140" height="30" as="geometry" />
        </mxCell>
        <mxCell id="13fjL6vr4duW2t4h_kx2-9" style="edgeStyle=orthogonalEdgeStyle;rounded=0;orthogonalLoop=1;jettySize=auto;html=1;entryX=-0.014;entryY=0.144;entryDx=0;entryDy=0;entryPerimeter=0;exitX=0.5;exitY=0;exitDx=0;exitDy=0;" edge="1" parent="1" source="Q69FnzAZ6aBtYkdbK8p3-10" target="13fjL6vr4duW2t4h_kx2-5">
          <mxGeometry relative="1" as="geometry" />
        </mxCell>
        <mxCell id="13fjL6vr4duW2t4h_kx2-10" value="" style="endArrow=classic;html=1;rounded=0;entryX=0.783;entryY=0.98;entryDx=0;entryDy=0;entryPerimeter=0;exitX=-0.037;exitY=0.588;exitDx=0;exitDy=0;exitPerimeter=0;" edge="1" parent="1" source="Q69FnzAZ6aBtYkdbK8p3-19" target="Q69FnzAZ6aBtYkdbK8p3-44">
          <mxGeometry relative="1" as="geometry">
            <mxPoint x="430" y="260" as="sourcePoint" />
            <mxPoint x="530" y="260" as="targetPoint" />
          </mxGeometry>
        </mxCell>
        <mxCell id="13fjL6vr4duW2t4h_kx2-11" value="Inventory Events" style="edgeLabel;resizable=0;html=1;;align=center;verticalAlign=middle;" connectable="0" vertex="1" parent="13fjL6vr4duW2t4h_kx2-10">
          <mxGeometry relative="1" as="geometry" />
        </mxCell>
        <mxCell id="13fjL6vr4duW2t4h_kx2-14" value="&lt;font style=&quot;font-size: 17px;&quot;&gt;MTBP (C4 Diagrams)&lt;/font&gt;" style="text;html=1;align=center;verticalAlign=middle;whiteSpace=wrap;rounded=0;fillColor=#ffe6cc;strokeColor=#d79b00;" vertex="1" parent="1">
          <mxGeometry x="40" y="370" width="240" height="50" as="geometry" />
        </mxCell>
      </root>
    </mxGraphModel>
  </diagram>
</mxfile>
